<!-- icon666.com - MILLIONS vector ICONS FREE --><svg fill="none" viewBox="0 0 24 24" xmlns="http://www.w3.org/2000/svg"><g fill="rgb(0,0,0)"><path d="m12.0001 13.0799c-.13 0-.26-.03-.38-.1l-5.29997-3.05996c-.36001-.21-.48002-.66999-.27002-1.01999.21-.36.65999-.48001 1.02999-.27001l4.92 2.84996 4.89-2.82995c.36-.21.82-.08001 1.03.26999.21.36.08.82001-.27 1.02001l-5.26 3.03995c-.13.06-.26.1-.39.1z"></path><path d="m12 18.52c-.41 0-.75-.34-.75-.75v-5.44c0-.41.34-.75.75-.75s.75.34.75.75v5.44c0 .41-.34.75-.75.75z"></path><path d="m12.0002 18.75c-.58 0-1.1499-.13-1.6099-.38l-3.20005-1.78c-.96-.53-1.70002-1.8-1.70002-2.9v-3.39c0-1.09001.75002-2.37001 1.70002-2.90001l3.20005-1.78c.92-.51 2.2999-.51 3.2199 0l3.2 1.78c.96.53 1.7001 1.8 1.7001 2.90001v3.39c0 1.09-.7501 2.37-1.7001 2.9l-3.2 1.78c-.46.25-1.03.38-1.61.38zm0-12.00002c-.33 0-.65.06001-.88.19001l-3.19994 1.78c-.49.27-.93003 1.03-.93003 1.58001v3.39c0 .56.44003 1.31.93003 1.58l3.19994 1.78c.46.26 1.3.26 1.76 0l3.2-1.78c.49-.27.9301-1.03.9301-1.58v-3.39c0-.56001-.4401-1.31001-.9301-1.58001l-3.2-1.78c-.23-.13-.55-.19001-.88-.19001z"></path><path d="m15.0002 22.75c-.27 0-.52-.15-.65-.38-.13-.24-.13-.52.01-.76l1.05-1.75c.21-.35.67-.47 1.03-.26s.47.67.26 1.03l-.27.45c2.76-.65 4.83-3.13 4.83-6.09 0-.41.34-.75.75-.75s.75.34.75.75c-.01 4.28-3.49 7.76-7.76 7.76z"></path><path d="m2 9.75c-.41 0-.75-.34-.75-.75 0-4.27 3.48-7.75 7.75-7.75.27 0 .51999.15.64999.38.13.24.13002.52-.00998.76l-1.05001 1.75c-.21.35-.67.47-1.03.26s-.47001-.67-.26001-1.03l.27002-.45c-2.76.65-4.83002 3.13-4.83002 6.09.01.4-.32999.74-.73999.74z"></path></g></svg>