<!-- icon666.com - MILLIONS vector ICONS FREE --><svg id="Layer_1" enable-background="new 0 0 66 66" viewBox="0 0 66 66" xmlns="http://www.w3.org/2000/svg"><g><path d="m8.23 9.27c.18.1 1.1-1.56 2.89-2.97 1.76-1.43 3.59-1.97 3.53-2.17-.01-.18-2.05.08-3.96 1.63-1.94 1.52-2.63 3.46-2.46 3.51z"></path><path d="m7.58 5.36c1.32-2.13 2.98-3.38 2.86-3.55-.07-.16-2.03.91-3.44 3.18-1.44 2.26-1.55 4.49-1.38 4.49.21.04.62-2.01 1.96-4.12z"></path><path d="m59.09 58.27c-1.01.83-1.96 1.35-1.89 1.54.06.17 1.22-.09 2.32-1 1.12-.9 1.62-1.98 1.46-2.07-.17-.12-.87.71-1.89 1.53z"></path><path d="m54.12 60.91c-.09.16 1.28 1.07 3.24 1.45 1.96.39 3.57.07 3.55-.11-.02-.2-1.57-.2-3.41-.57-1.86-.36-3.29-.95-3.38-.77z"></path><path d="m64.55 43.7c-.06-1.55-.12-2.97-.17-4.24-.12-2.55-.22-4.52-.28-5.87-.08-1.34-.14-2.04-.19-2.04s-.08.71-.09 2.05c0 1.34.01 3.32.02 5.87.01 1.27.03 2.69.05 4.24.01 1.54.07 3.26-.03 5.01-.08.86-.26 1.73-.8 2.42-.52.7-1.32 1.23-2.2 1.68-1.81.87-3.82 1.75-5.9 2.66-2.09.91-4.28 1.83-6.58 2.75-2.29.93-4.74 1.82-7.2 2.89-2.44.99-5.05 2.02-7.74 1.86-.01 0-.01 0-.02 0 .3-1.98.51-8.69.51-16.69 0-8.24-.23-15.12-.54-16.86.1-.05.2-.09.29-.14 8.18-3.84 15.38-7.3 20.64-9.91 4.24-2.1 7.14-3.61 8.05-4.2.37.56.58 1.22.69 1.89.14.8.17 1.59.18 2.36 0 1.52-.02 2.99.08 4.25.16 2.54.28 4.52.36 5.86.1 1.34.17 2.04.22 2.04s.07-.71.06-2.05c-.02-1.34-.06-3.32-.1-5.87-.06-1.28-.01-2.65.04-4.23.01-.78 0-1.61-.14-2.48-.13-.86-.38-1.79-1.03-2.59-.64-.77-1.5-1.28-2.38-1.74-.89-.45-1.83-.82-2.81-1.17s-1.99-.67-3.01-1c-1.03-.32-2.03-.73-3.11-1.15-2.13-.82-4.39-1.63-6.77-2.39-1.19-.37-2.4-.74-3.63-1.12-1.21-.4-2.45-.87-3.74-1.28-1.28-.45-2.64-.82-4.08-.98-1.44-.15-2.96-.05-4.41.39-2.76.85-5.52 1.9-8.32 3.07-2.79 1.15-5.62 2.47-8.47 3.73-1.44.6-2.94 1.16-4.43 1.88-1.47.73-3 1.58-4.17 2.96-.6.66-1.05 1.48-1.37 2.33-.31.85-.41 1.82-.46 2.62-.12 1.68-.19 3.37-.22 5.07-.05 3.41.05 6.86.16 10.33.21 3.41-.35 6.83-.06 10.32.14 1.73.44 3.53 1.48 5.13.3.37.57.76.99 1.06.39.31.76.51 1.14.73.75.41 1.51.77 2.26 1.11 3.02 1.36 6.04 2.49 8.99 3.63 1.47.57 2.92 1.13 4.35 1.69 1.41.56 2.78 1.23 4.17 1.83 1.39.61 2.77 1.19 4.17 1.7.7.25 1.4.49 2.11.7.75.2 1.5.36 2.26.37 1.52.09 2.99-.18 4.36-.58 1.37-.39 2.66-.91 3.9-1.44 2.45-1.09 4.85-1.99 7.16-2.96 2.3-.96 4.5-1.91 6.58-2.85 2.09-.95 4.04-1.84 5.91-2.78.93-.5 1.83-1.09 2.46-1.97.66-.87.84-1.93.9-2.85.06-1.84-.05-3.49-.09-5.05zm-56.39-29.89c1.41-.69 2.9-1.24 4.36-1.87 2.91-1.31 5.67-2.61 8.45-3.77 2.76-1.17 5.49-2.23 8.18-3.08 1.28-.39 2.62-.5 3.93-.37 1.32.13 2.6.47 3.86.86 1.27.42 2.52.84 3.74 1.24 1.26.4 2.47.72 3.65 1.09 2.37.73 4.61 1.5 6.74 2.29 1.05.39 2.12.8 3.17 1.12 1.04.32 2.05.62 3.01.95s1.88.67 2.73 1.08c.83.41 1.63.88 2.16 1.5.04.04.06.09.1.14-1.07.34-4.06 1.6-8.34 3.5-5.32 2.36-12.74 5.75-20.71 9.5-1.98-.75-3.91-1.48-5.77-2.18-1.94-.76-3.81-1.49-5.6-2.19-3.56-1.42-6.75-2.73-9.42-3.85-3.91-1.63-6.72-2.82-7.99-3.27.01-.01.02-.03.03-.04.96-1.16 2.33-1.96 3.72-2.65zm21.26 48.13c-1.36-.5-2.71-1.08-4.08-1.69-1.37-.6-2.74-1.28-4.2-1.87-1.44-.57-2.89-1.14-4.37-1.72-2.93-1.15-5.94-2.29-8.9-3.63-.74-.33-1.47-.69-2.16-1.07-.33-.19-.7-.4-.95-.61-.27-.18-.48-.49-.71-.76-.8-1.22-1.12-2.84-1.24-4.46-.26-3.27.29-6.72.09-10.26-.11-3.47-.21-6.9-.16-10.26.02-1.68.09-3.35.21-5 .03-.42.06-.83.12-1.18.03-.38.15-.73.26-1.08.22-.58.5-1.14.89-1.63.37.22.91.52 1.61.89 1.44.76 3.54 1.8 6.17 3.04 2.63 1.23 5.79 2.64 9.33 4.13 1.77.74 3.64 1.51 5.59 2.28.98.38 1.97.77 2.98 1.16 1.04.39 2.11.79 3.18 1.2-.31 1.74-.54 8.62-.54 16.86 0 7.95.22 14.62.51 16.65-.54-.05-1.07-.16-1.59-.3-.68-.2-1.36-.44-2.04-.69z"></path><path d="m24.97 15.99c.1.08.17.11.26.17.33.2.63.31.94.42.61.2 1.2.33 1.78.44 1.16.2 2.27.29 3.33.34 2.12.08 4.03-.05 5.61-.29 1.59-.24 2.86-.6 3.68-1.04.41-.22.71-.48.84-.72.14-.25.04-.42.02-.41-.07 0-.08.12-.24.24-.15.12-.43.27-.83.39-.8.25-2.04.45-3.58.56s-3.4.13-5.43-.01c-1.02-.07-2.08-.19-3.15-.4-.53-.11-1.07-.23-1.57-.41-.24-.09-.49-.19-.67-.3l-.12-.07.12-.07c.18-.11.43-.21.67-.3.5-.17 1.04-.3 1.57-.41 1.07-.2 2.14-.32 3.15-.4 2.04-.14 3.89-.12 5.43-.01s2.78.31 3.58.56c.4.12.67.27.83.39.17.12.17.24.24.24.03.02.12-.16-.02-.41-.13-.24-.43-.5-.84-.72-.83-.44-2.1-.8-3.68-1.04-1.59-.24-3.49-.36-5.61-.29-1.06.04-2.18.14-3.33.34-.58.11-1.17.24-1.78.44-.31.11-.61.22-.94.42-.09.06-.15.09-.26.17-.11.09-.22.2-.32.31-.16.24-.27.5-.31.78.04.28.14.55.31.78.1.11.2.21.32.31z"></path><path d="m15.15 30.23c-.39-.59-.97-1.21-1.84-1.54-.86-.35-2-.23-2.85.34-1.72 1.17-2.47 3.32-2.49 5.44.02 2.11.76 4.27 2.49 5.44.86.57 1.99.69 2.85.34.87-.33 1.45-.95 1.84-1.54.78-1.2.93-2.34.96-3.08.01-.75-.1-1.16-.19-1.16-.11 0-.17.4-.35 1.08-.19.67-.49 1.66-1.22 2.58-.36.45-.85.86-1.43 1.03-.57.18-1.21.08-1.77-.32-1.14-.81-1.81-2.59-1.81-4.37s.67-3.56 1.81-4.37c.56-.4 1.2-.5 1.77-.32.58.17 1.06.58 1.43 1.03.73.92 1.03 1.91 1.22 2.58.17.68.24 1.08.35 1.08.09 0 .2-.4.19-1.16-.04-.74-.18-1.87-.96-3.08z"></path><path d="m24.26 44.03c-.39-.59-.97-1.21-1.84-1.54-.86-.35-2-.23-2.85.34-1.72 1.17-2.47 3.32-2.49 5.44.02 2.11.76 4.27 2.49 5.44.86.57 1.99.69 2.85.34.87-.33 1.45-.95 1.84-1.54.78-1.2.93-2.34.96-3.08.01-.75-.1-1.16-.19-1.16-.11 0-.17.4-.35 1.08-.19.67-.49 1.66-1.22 2.58-.36.45-.85.86-1.43 1.03-.57.18-1.21.08-1.77-.32-1.14-.81-1.81-2.59-1.81-4.37s.67-3.56 1.81-4.37c.56-.4 1.2-.5 1.77-.32.58.17 1.06.58 1.43 1.03.73.92 1.03 1.91 1.22 2.58.17.68.24 1.08.35 1.08.09 0 .2-.4.19-1.16-.03-.75-.18-1.88-.96-3.08z"></path><path d="m44.28 46.39c-.39-.59-.97-1.21-1.84-1.54-.86-.35-2-.23-2.85.34-1.72 1.17-2.47 3.32-2.49 5.44.02 2.11.76 4.27 2.49 5.44.86.57 1.99.69 2.85.34.87-.33 1.45-.95 1.84-1.54.78-1.2.93-2.34.96-3.08.01-.75-.1-1.16-.19-1.16-.11 0-.17.4-.35 1.08-.19.67-.49 1.66-1.22 2.58-.36.45-.85.86-1.43 1.03-.57.18-1.21.08-1.77-.32-1.14-.81-1.81-2.59-1.81-4.37s.67-3.56 1.81-4.37c.56-.4 1.2-.5 1.77-.32.58.17 1.06.58 1.43 1.03.73.92 1.03 1.91 1.22 2.58.17.68.24 1.08.35 1.08.09 0 .2-.4.19-1.16-.04-.74-.18-1.88-.96-3.08z"></path><path d="m51.55 35.61c-.39-.59-.97-1.21-1.84-1.54-.86-.35-2-.23-2.85.34-1.72 1.17-2.47 3.32-2.49 5.44.02 2.11.76 4.27 2.49 5.44.86.57 1.99.69 2.85.34.87-.33 1.45-.95 1.84-1.54.78-1.2.93-2.34.96-3.08.01-.75-.1-1.16-.19-1.16-.11 0-.17.4-.35 1.08-.19.67-.49 1.66-1.22 2.58-.36.45-.85.86-1.43 1.03-.57.18-1.21.08-1.77-.32-1.14-.81-1.81-2.59-1.81-4.37s.67-3.56 1.81-4.37c.56-.4 1.2-.5 1.77-.32.58.17 1.06.59 1.43 1.03.73.92 1.03 1.91 1.22 2.58.17.68.24 1.08.35 1.08.09 0 .2-.4.19-1.16-.04-.74-.19-1.87-.96-3.08z"></path><path d="m58.81 24.84c-.39-.59-.97-1.21-1.84-1.54-.86-.35-2-.23-2.85.34-1.72 1.17-2.47 3.32-2.49 5.44.02 2.11.76 4.27 2.49 5.44.86.57 1.99.69 2.85.34.87-.33 1.45-.95 1.84-1.54.78-1.2.93-2.34.96-3.08.01-.75-.1-1.16-.19-1.16-.11 0-.17.4-.35 1.08-.19.67-.49 1.66-1.22 2.58-.36.45-.85.86-1.43 1.03-.57.18-1.21.08-1.77-.32-1.14-.81-1.81-2.59-1.81-4.37s.67-3.56 1.81-4.37c.56-.4 1.2-.49 1.77-.32.58.17 1.06.59 1.43 1.03.73.92 1.03 1.91 1.22 2.58.17.68.24 1.08.35 1.08.09 0 .2-.4.19-1.16-.03-.75-.18-1.88-.96-3.08z"></path></g></svg>